<?xml version="1.0" encoding="UTF-8"?>
<svg width="118px" height="44px" viewBox="0 0 118 44" version="1.1" xmlns="http://www.w3.org/2000/svg" xmlns:xlink="http://www.w3.org/1999/xlink">
    <!-- Generator: Sketch 56.3 (81716) - https://sketch.com -->
    <title>logo</title>
    <desc>Created with Sketch.</desc>
    <defs>
        <polygon id="path-1" points="0 43.8415 117.235 43.8415 117.235 -0.0005 0 -0.0005"></polygon>
    </defs>
    <g id="Welcome" stroke="none" stroke-width="1" fill="none" fill-rule="evenodd">
        <g id="home" transform="translate(-137.000000, -30.000000)">
            <g id="hero-img" transform="translate(0.000000, -1.000000)">
                <g id="logo" transform="translate(137.000000, 31.000000)">
                    <path d="M49.9537,33.9237 L49.0027,33.3447 C48.4057,32.9817 47.9807,32.6227 47.7267,32.2697 C47.4747,31.9177 47.3497,31.5117 47.3497,31.0527 C47.3497,30.3637 47.5887,29.8047 48.0667,29.3747 C48.5427,28.9447 49.1637,28.7297 49.9297,28.7297 C50.6587,28.7297 51.3287,28.9347 51.9377,29.3447 L51.9377,30.7647 C51.3077,30.1607 50.6297,29.8577 49.9017,29.8577 C49.4947,29.8577 49.1577,29.9517 48.8957,30.1407 C48.6317,30.3287 48.5007,30.5717 48.5007,30.8667 C48.5007,31.1287 48.5977,31.3737 48.7907,31.6027 C48.9847,31.8307 49.2977,32.0707 49.7257,32.3217 L50.6807,32.8887 C51.7497,33.5257 52.2817,34.3367 52.2817,35.3207 C52.2817,36.0227 52.0487,36.5917 51.5787,37.0297 C51.1087,37.4687 50.4987,37.6877 49.7467,37.6877 C48.8837,37.6877 48.0967,37.4217 47.3877,36.8907 L47.3877,35.2997 C48.0627,36.1577 48.8457,36.5857 49.7337,36.5857 C50.1267,36.5857 50.4527,36.4767 50.7147,36.2577 C50.9747,36.0397 51.1047,35.7667 51.1047,35.4377 C51.1047,34.9057 50.7207,34.4007 49.9537,33.9237" id="Fill-1" fill="#FEFEFE"></path>
                    <path d="M58.1285,29.9067 C57.1265,29.9067 56.3045,30.2207 55.6605,30.8457 C55.0165,31.4717 54.6955,32.2717 54.6955,33.2427 C54.6955,34.1867 55.0185,34.9707 55.6645,35.5967 C56.3105,36.2227 57.1195,36.5357 58.0905,36.5357 C59.0655,36.5357 59.8815,36.2167 60.5315,35.5787 C61.1845,34.9397 61.5115,34.1447 61.5115,33.1937 C61.5115,32.2667 61.1845,31.4877 60.5315,30.8557 C59.8815,30.2227 59.0775,29.9067 58.1285,29.9067 M58.0775,28.7177 C59.4285,28.7177 60.5545,29.1447 61.4535,30.0017 C62.3515,30.8567 62.8005,31.9287 62.8005,33.2187 C62.8005,34.5087 62.3475,35.5747 61.4405,36.4197 C60.5335,37.2657 59.3905,37.6887 58.0105,37.6887 C56.6915,37.6887 55.5935,37.2657 54.7165,36.4197 C53.8385,35.5747 53.3995,34.5167 53.3995,33.2427 C53.3995,31.9377 53.8405,30.8567 54.7255,30.0017 C55.6095,29.1447 56.7265,28.7177 58.0775,28.7177" id="Fill-3" fill="#FEFEFE"></path>
                    <polygon id="Fill-5" fill="#FEFEFE" points="64.4693 28.8432 65.7213 28.8432 65.7213 36.4482 69.6573 36.4482 69.6573 37.5872 64.4693 37.5872"></polygon>
                    <path d="M76.9654,28.8432 L78.2254,28.8432 L78.2254,33.8072 C78.2254,34.4792 78.1754,34.9862 78.0764,35.3282 C77.9784,35.6702 77.8574,35.9552 77.7154,36.1832 C77.5694,36.4092 77.3934,36.6132 77.1864,36.7922 C76.4924,37.3892 75.5874,37.6882 74.4684,37.6882 C73.3284,37.6882 72.4154,37.3912 71.7264,36.7982 C71.5194,36.6152 71.3424,36.4092 71.1974,36.1832 C71.0544,35.9552 70.9364,35.6762 70.8414,35.3462 C70.7464,35.0162 70.7004,34.4992 70.7004,33.7942 L70.7004,28.8432 L71.9584,28.8432 L71.9584,33.8072 C71.9584,34.6292 72.0524,35.2002 72.2394,35.5212 C72.4284,35.8432 72.7144,36.1002 73.0984,36.2952 C73.4824,36.4892 73.9344,36.5852 74.4554,36.5852 C75.1974,36.5852 75.8034,36.3922 76.2724,36.0032 C76.5184,35.7952 76.6954,35.5482 76.8034,35.2642 C76.9114,34.9822 76.9654,34.4952 76.9654,33.8072 L76.9654,28.8432 Z" id="Fill-7" fill="#FEFEFE"></path>
                    <polygon id="Fill-9" fill="#FEFEFE" points="79.3414 28.83 86.6464 28.83 86.6464 29.944 83.5984 29.944 83.5984 37.588 82.3404 37.588 82.3404 29.944 79.3414 29.944"></polygon>
                    <mask id="mask-2" fill="white">
                        <use xlink:href="#path-1"></use>
                    </mask>
                    <g id="Clip-12"></g>
                    <polygon id="Fill-11" fill="#FEFEFE" mask="url(#mask-2)" points="87.97 37.5875 89.221 37.5875 89.221 28.8435 87.97 28.8435"></polygon>
                    <path d="M95.6304,29.9067 C94.6304,29.9067 93.8084,30.2207 93.1644,30.8457 C92.5204,31.4717 92.1974,32.2717 92.1974,33.2427 C92.1974,34.1867 92.5204,34.9707 93.1664,35.5967 C93.8144,36.2227 94.6214,36.5357 95.5944,36.5357 C96.5694,36.5357 97.3834,36.2167 98.0354,35.5787 C98.6884,34.9397 99.0154,34.1447 99.0154,33.1937 C99.0154,32.2667 98.6884,31.4877 98.0354,30.8557 C97.3834,30.2227 96.5814,29.9067 95.6304,29.9067 M95.5814,28.7177 C96.9324,28.7177 98.0564,29.1447 98.9554,30.0017 C99.8544,30.8567 100.3024,31.9287 100.3024,33.2187 C100.3024,34.5087 99.8514,35.5747 98.9434,36.4197 C98.0354,37.2657 96.8924,37.6887 95.5124,37.6887 C94.1934,37.6887 93.0954,37.2657 92.2184,36.4197 C91.3404,35.5747 90.9024,34.5167 90.9024,33.2427 C90.9024,31.9377 91.3444,30.8567 92.2294,30.0017 C93.1124,29.1447 94.2284,28.7177 95.5814,28.7177" id="Fill-13" fill="#FEFEFE" mask="url(#mask-2)"></path>
                    <polygon id="Fill-14" fill="#FEFEFE" mask="url(#mask-2)" points="108.9195 28.8432 110.1065 28.8432 110.1065 37.5872 109.0325 37.5872 103.1865 30.8532 103.1865 37.5872 102.0095 37.5872 102.0095 28.8432 103.0235 28.8432 108.9195 35.6342"></polygon>
                    <path d="M114.274,33.9237 L113.324,33.3447 C112.726,32.9817 112.302,32.6227 112.048,32.2697 C111.797,31.9177 111.671,31.5117 111.671,31.0527 C111.671,30.3637 111.909,29.8047 112.388,29.3747 C112.865,28.9447 113.486,28.7297 114.25,28.7297 C114.979,28.7297 115.65,28.9347 116.259,29.3447 L116.259,30.7647 C115.628,30.1607 114.952,29.8577 114.225,29.8577 C113.816,29.8577 113.48,29.9517 113.216,30.1407 C112.955,30.3287 112.821,30.5717 112.821,30.8667 C112.821,31.1287 112.92,31.3737 113.113,31.6027 C113.308,31.8307 113.619,32.0707 114.047,32.3217 L115.003,32.8887 C116.07,33.5257 116.604,34.3367 116.604,35.3207 C116.604,36.0227 116.369,36.5917 115.899,37.0297 C115.429,37.4687 114.819,37.6877 114.068,37.6877 C113.205,37.6877 112.418,37.4217 111.708,36.8907 L111.708,35.2997 C112.384,36.1577 113.169,36.5857 114.056,36.5857 C114.448,36.5857 114.775,36.4767 115.035,36.2577 C115.297,36.0397 115.425,35.7667 115.425,35.4377 C115.425,34.9057 115.043,34.4007 114.274,33.9237" id="Fill-15" fill="#FEFEFE" mask="url(#mask-2)"></path>
                    <path d="M21.816,37.3412 C13.248,37.3412 6.275,30.3682 6.275,21.8012 C6.275,13.2282 13.248,6.2572 21.816,6.2572 C30.384,6.2572 37.357,13.2282 37.357,21.8012 C37.357,30.3682 30.384,37.3412 21.816,37.3412 M21.816,5.3092 C12.709,5.3092 5.323,12.6922 5.323,21.8012 C5.323,30.9072 12.709,38.2922 21.816,38.2922 C30.922,38.2922 38.306,30.9072 38.306,21.8012 C38.306,12.6922 30.922,5.3092 21.816,5.3092" id="Fill-16" fill="#FEFEFE" mask="url(#mask-2)"></path>
                    <path d="M117.233,16.1825 C117.233,16.1825 117.303,15.1105 116.545,14.1475 C115.707,13.0835 114.283,12.9745 114.283,12.9745 L101.803,12.9745 C101.803,12.9745 101.522,13.0045 101.305,12.7975 C101.092,12.5945 101.097,12.3095 101.097,12.3095 L101.097,10.8835 C101.097,10.8835 101.062,10.6285 101.3,10.3845 C101.492,10.1855 101.795,10.2175 101.795,10.2175 L117.233,10.2175 L117.233,8.9755 C117.233,8.3095 117.018,7.6685 116.595,7.0835 C115.701,5.8455 114.283,5.8345 114.283,5.8345 L100.114,5.8345 C100.114,5.8345 98.629,5.6445 97.552,6.8455 C96.645,7.8525 96.729,8.9755 96.729,8.9755 L96.729,14.0885 C96.729,14.0885 96.681,15.3515 97.667,16.3845 C98.579,17.3395 99.826,17.3235 99.826,17.3235 L112.198,17.3235 C112.198,17.3235 112.521,17.3225 112.718,17.5605 C112.907,17.7895 112.881,17.9875 112.881,17.9875 L112.881,19.4755 C112.881,19.4755 112.907,19.6935 112.718,19.9115 C112.527,20.1355 112.24,20.1235 112.24,20.1235 L95.584,20.1235 L87.811,5.8345 L82.414,5.8345 L79.69,10.7965 L76.974,5.8345 L71.57,5.8345 L63.528,20.5205 L57.838,13.9045 L65.697,5.9045 L59.841,5.9045 L52.124,13.6615 L52.124,5.8345 L47.239,5.8345 L47.239,24.4945 L52.124,24.4945 L52.124,13.8555 L61.355,24.4945 L66.78,24.4945 L74.249,10.8085 L76.974,15.7805 L72.21,24.4945 L77.629,24.4945 L85.109,10.7965 L92.576,24.4945 L114.283,24.4945 C114.283,24.4945 115.748,24.4155 116.594,23.2655 C117.301,22.3005 117.233,21.0195 117.233,21.0195 L117.233,16.1825 Z" id="Fill-17" fill="#FEFEFE" mask="url(#mask-2)"></path>
                    <polygon id="Fill-18" fill="#FEFEFE" mask="url(#mask-2)" points="69.9469 23.4062 69.9589 23.4062 69.9469 23.3932"></polygon>
                    <path d="M6.4097,29.7372 L6.4097,37.4392 L13.9317,37.4392 C10.6827,35.7342 8.0427,33.0312 6.4097,29.7372" id="Fill-19" fill="#FEFEFE" mask="url(#mask-2)"></path>
                    <path d="M13.7115,6.4643 L6.3925,6.4643 L6.3925,14.0673 C7.9855,10.8403 10.5525,8.1763 13.7115,6.4643" id="Fill-20" fill="#FEFEFE" mask="url(#mask-2)"></path>
                    <path d="M37.3697,13.8212 L37.3697,6.4872 L30.1837,6.4872 C33.2557,8.1492 35.7657,10.7132 37.3697,13.8212" id="Fill-21" fill="#FEFEFE" mask="url(#mask-2)"></path>
                    <path d="M30.0035,37.4389 L37.3875,37.4389 L37.3875,30.0019 C35.7485,33.1759 33.1625,35.7789 30.0035,37.4389" id="Fill-22" fill="#FEFEFE" mask="url(#mask-2)"></path>
                    <path d="M5.3941,16.5595 L-0.0009,21.9515 L5.3191,27.2665 C4.7951,25.6145 4.5121,23.8525 4.5121,22.0265 C4.5121,20.1135 4.8241,18.2795 5.3941,16.5595" id="Fill-23" fill="#FEFEFE" mask="url(#mask-2)"></path>
                    <path d="M16.5914,38.5409 L21.8924,43.8419 L27.2514,38.4849 C25.5454,39.0419 23.7264,39.3479 21.8374,39.3479 C20.0074,39.3479 18.2464,39.0629 16.5914,38.5409" id="Fill-24" fill="#FEFEFE" mask="url(#mask-2)"></path>
                    <path d="M26.9996,5.099 L21.9026,7.10542736e-15 L16.6276,5.274 C18.3476,4.705 20.1836,4.395 22.0936,4.395 C23.7986,4.395 25.4436,4.646 26.9996,5.099" id="Fill-25" fill="#FEFEFE" mask="url(#mask-2)"></path>
                    <path d="M38.5259,27.1615 L43.7629,21.9235 L38.6849,16.8445 C39.1389,18.4015 39.3909,20.0455 39.3909,21.7505 C39.3909,23.6385 39.0859,25.4575 38.5259,27.1615" id="Fill-26" fill="#FEFEFE" mask="url(#mask-2)"></path>
                    <path d="M32.9449,27.4716 L26.8699,25.4716 L30.6489,30.6326 L25.4879,26.8536 L27.4869,32.9276 L23.7469,27.7376 L23.7709,34.1366 L21.8149,28.0456 L19.8629,34.1366 L19.8839,27.7376 L16.1449,32.9276 L18.1439,26.8536 L12.9829,30.6326 L16.7629,25.4716 L10.6859,27.4716 L15.8769,23.7286 L9.4799,23.7526 L15.5699,21.7996 L9.4799,19.8456 L15.8769,19.8706 L10.6859,16.1276 L16.7629,18.1296 L12.9829,12.9686 L18.1439,16.7466 L16.1449,10.6676 L19.8839,15.8596 L19.8629,9.4626 L21.8149,15.5526 L23.7709,9.4626 L23.7469,15.8596 L27.4869,10.6676 L25.4879,16.7466 L30.6489,12.9686 L26.8699,18.1296 L32.9449,16.1276 L27.7559,19.8706 L34.1509,19.8456 L28.0629,21.7996 L34.1509,23.7526 L27.7559,23.7286 L32.9449,27.4716 Z M21.8179,7.1676 C13.7459,7.1676 7.1849,13.7276 7.1849,21.8006 C7.1849,29.8686 13.7459,36.4326 21.8179,36.4326 C29.8849,36.4326 36.4469,29.8686 36.4469,21.8006 C36.4469,13.7276 29.8849,7.1676 21.8179,7.1676 L21.8179,7.1676 Z" id="Fill-27" fill="#FEFEFE" mask="url(#mask-2)"></path>
                </g>
            </g>
        </g>
    </g>
</svg>